<svg width="44" height="35" viewBox="0 0 44 35" fill="none" xmlns="http://www.w3.org/2000/svg">
<path d="M9.38109 25.2837C9.02836 25.0004 8.49925 25.0409 8.19691 25.3808L6.0973 27.8007L5.34144 27.1775C4.98871 26.8862 4.45961 26.9347 4.15726 27.2746C3.85492 27.6146 3.90531 28.1244 4.25805 28.4158L5.66058 29.565C5.81176 29.6864 6.00492 29.7593 6.20648 29.7593C6.23168 29.7593 6.25687 29.7593 6.28207 29.7593C6.50883 29.7431 6.71039 29.6379 6.85316 29.476L9.49867 26.4329C9.78422 26.0849 9.74222 25.5669 9.38109 25.2837Z" fill="white"/>
<path d="M41.2195 12.8036H40.0102C39.0023 12.7551 38.1877 11.9295 37.2471 10.9664C36.6172 10.3271 35.9453 9.63913 35.1307 9.12926V2.20947C35.1307 0.987384 34.0977 0 32.8379 0H5.45059C4.18242 0 3.15781 0.995477 3.15781 2.20947V7.82623C3.15781 8.27136 3.53574 8.63556 3.99766 8.63556C4.45957 8.63556 4.8375 8.27136 4.8375 7.82623V2.20947C4.8375 1.88574 5.11465 1.61866 5.45059 1.61866H14.7477V8.78124C14.7477 9.0726 14.9156 9.34777 15.1844 9.48536C15.3104 9.55011 15.4531 9.59057 15.5875 9.59057C15.7387 9.59057 15.8982 9.55011 16.0326 9.46917L19.1484 7.58343L22.2643 9.46108C22.5246 9.61485 22.8521 9.62295 23.1125 9.48536C23.3729 9.34777 23.5492 9.0726 23.5492 8.78124V1.61866H32.8463C33.1822 1.61866 33.4594 1.88574 33.4594 2.20947V8.44132C33.1822 8.38467 32.8967 8.3523 32.5943 8.3442C32.5859 8.3442 32.5859 8.3442 32.5775 8.3442H30.4527H28.7982H27.8492C27.8408 8.3442 27.8408 8.3442 27.8324 8.3442C26.8162 8.36039 26.3039 8.80552 26.0436 9.16972C25.6404 9.74435 25.6068 10.5132 25.9428 11.3468C26.0184 11.5411 26.1107 11.7272 26.2199 11.8972H19.8539C18.485 11.8972 17.3764 12.9736 17.3764 14.2847C17.3764 14.5599 17.4268 14.8189 17.5107 15.0617H17.284C15.915 15.0617 14.8064 16.1381 14.8064 17.4492C14.8064 18.7603 15.9234 19.8367 17.284 19.8367H17.5023C17.4184 20.0795 17.368 20.3385 17.368 20.6056C17.368 21.8843 18.4094 22.9284 19.7195 22.9931C19.6355 23.2359 19.5852 23.4949 19.5852 23.7701C19.5852 25.0893 20.7022 26.1576 22.0627 26.1576H32.4684C32.8295 26.1576 33.157 26.1171 33.451 26.0443V28.5775C33.451 28.9012 33.1738 29.1683 32.8379 29.1683H13.3871C13.5551 28.6018 13.6391 28.0109 13.6391 27.3959C13.6391 23.7701 10.582 20.8241 6.81953 20.8241C6.13086 20.8241 5.45898 20.9212 4.8375 21.1074V15.0778C4.8375 14.6327 4.45957 14.2685 3.99766 14.2685C3.53574 14.2685 3.15781 14.6327 3.15781 15.0778V21.86C1.25977 23.0497 0 25.0974 0 27.4282C0 31.054 3.05703 34.0081 6.81953 34.0081C9.29707 34.0081 11.4639 32.7293 12.6648 30.8274H32.8463C34.1145 30.8274 35.1391 29.8319 35.1391 28.6179V25.2835C35.3238 25.154 35.5002 25.0245 35.6766 24.895C36.4156 24.3447 37.0623 23.8672 38.0785 23.8672H41.2279C42.2105 23.8672 43.0084 23.0983 43.0084 22.1595V14.5275C43 13.5725 42.2021 12.8036 41.2195 12.8036ZM21.8695 7.31635L19.5936 5.94049C19.3248 5.77862 18.9721 5.77862 18.7033 5.94049L16.4273 7.31635V1.61866H21.8779V7.31635H21.8695ZM6.81953 32.3813C3.98086 32.3813 1.67969 30.1557 1.67969 27.4201C1.67969 24.6846 3.98926 22.467 6.81953 22.467C9.6498 22.467 11.9594 24.6927 11.9594 27.4201C11.9678 30.1557 9.6582 32.3813 6.81953 32.3813ZM41.3203 22.1514C41.3203 22.2 41.2783 22.2404 41.2195 22.2404H38.0701C36.4744 22.2404 35.5002 22.9607 34.6436 23.6001C33.9213 24.1343 33.3502 24.5632 32.4684 24.5632H22.0711C21.626 24.5632 21.2732 24.2152 21.2732 23.7943C21.2732 23.3735 21.6344 23.0255 22.0711 23.0255H24.8594C25.3213 23.0255 25.6992 22.6613 25.6992 22.2161C25.6992 21.771 25.3213 21.4068 24.8594 21.4068H19.8539C19.4088 21.4068 19.0561 21.0588 19.0561 20.6298C19.0561 20.2009 19.4172 19.861 19.8539 19.861H24.8594C25.3213 19.861 25.6992 19.4968 25.6992 19.0517C25.6992 18.6065 25.3213 18.2423 24.8594 18.2423H17.284C16.8389 18.2423 16.4861 17.8943 16.4861 17.4735C16.4861 17.0526 16.8473 16.7046 17.284 16.7046H24.8594C25.3213 16.7046 25.6992 16.3404 25.6992 15.8953C25.6992 15.4501 25.3213 15.0859 24.8594 15.0859H19.8539C19.4088 15.0859 19.0561 14.7379 19.0561 14.309C19.0561 13.88 19.4172 13.5401 19.8539 13.5401H29.2266H31.049H32.2668C32.7287 13.5401 33.1066 13.1759 33.1066 12.7308C33.1066 12.2856 32.7287 11.9214 32.2668 11.9214H31.049H29.2266C28.4623 11.9214 27.782 11.4763 27.5133 10.7884C27.3537 10.3918 27.3957 10.1571 27.4461 10.0924C27.4881 10.0276 27.6561 9.98715 27.866 9.97905H30.4611H32.5775C33.9969 10.0033 34.9879 11.015 36.0377 12.0914C37.1379 13.2083 38.2717 14.3737 39.9766 14.4304C39.985 14.4304 40.0018 14.4304 40.0102 14.4304H41.2363C41.2867 14.4304 41.3371 14.4708 41.3371 14.5275L41.3203 22.1514Z" fill="white"/>
<path d="M3.99768 12.2691C4.45959 12.2691 4.83752 11.9049 4.83752 11.4597C4.83752 11.0146 4.45959 10.6504 3.99768 10.6504C3.53577 10.6504 3.15784 11.0146 3.15784 11.4597V11.4678C3.15784 11.9129 3.53577 12.2691 3.99768 12.2691Z" fill="white"/>
</svg>
