<svg width="31" height="30" viewBox="0 0 31 30" fill="none" xmlns="http://www.w3.org/2000/svg">
<path d="M11.64 6.88008C11.92 7.30008 12.06 7.58001 12.2 7.86001C12.34 8.14001 12.34 8.41998 12.34 8.69998C12.34 8.97998 12.2 9.40008 12.06 9.68008C11.92 9.96008 11.64 10.38 11.22 10.66L10.1 11.7801C9.95997 11.9201 9.82004 12.0599 9.82004 12.3399C9.82004 12.4799 9.82004 12.62 9.82004 12.62C9.82004 12.76 9.96001 12.76 9.96001 12.9C10.24 13.32 10.66 14.02 11.22 14.72C11.92 15.42 12.48 16.12 13.32 16.96C14.02 17.66 14.86 18.36 15.56 19.06C16.26 19.62 16.96 20.04 17.38 20.32C17.52 20.32 17.52 20.32 17.66 20.46C17.8 20.46 17.94 20.46 18.08 20.46C18.36 20.46 18.5 20.32 18.64 20.18L19.76 19.06C20.18 18.64 20.46 18.5 20.74 18.22C21.02 18.08 21.44 17.9399 21.72 17.9399C22 17.9399 22.28 17.9401 22.56 18.0801C22.84 18.2201 23.26 18.3599 23.54 18.6399L28.16 21.86C28.5799 22.14 28.7199 22.4199 28.8599 22.6999C28.9999 23.1199 29.14 23.4 29.14 23.82C29.14 24.38 29 24.8 28.72 25.36C28.44 25.92 28.16 26.34 27.74 26.76C27.04 27.46 26.3399 28.0199 25.4999 28.4399C24.6599 28.8599 23.6799 28.9999 22.6999 28.9999C21.2999 28.9999 19.76 28.72 18.08 28.02C16.54 27.32 14.86 26.34 13.32 25.22C11.78 24.1 10.24 22.6999 8.69998 21.2999C7.29998 19.8999 5.9 18.3601 4.78001 16.6801C3.66001 15.1401 2.68001 13.46 1.98001 11.92C1.28002 10.38 1 8.83998 1 7.29998C1 6.31998 1.14003 5.47995 1.56003 4.63995C1.84003 3.79996 2.40005 2.96003 3.24004 2.26003C4.08004 1.42003 5.06 1 6.18 1C6.6 1 7.01998 1.1401 7.29998 1.2801C7.71998 1.4201 8 1.70007 8.27999 2.12007" stroke="white" stroke-width="1.5" stroke-miterlimit="10" stroke-linecap="round" stroke-linejoin="round"/>
<path d="M24.38 11.0797C24.38 10.2397 23.68 8.97961 22.7 7.85961C21.86 6.87962 20.6 6.17969 19.48 6.17969" stroke="white" stroke-width="1.5" stroke-linecap="round" stroke-linejoin="round"/>
<path d="M22.28 1.55972C21.44 1.27972 20.46 1.13965 19.48 1.13965" stroke="white" stroke-width="1.5" stroke-linecap="round" stroke-linejoin="round"/>
<path d="M29.2803 11.0797C29.2803 7.7197 27.6003 4.7796 25.0803 3.09961" stroke="white" stroke-width="1.5" stroke-linecap="round" stroke-linejoin="round"/>
</svg>
