<svg width="30" height="33" viewBox="0 0 30 33" fill="none" xmlns="http://www.w3.org/2000/svg">
<path d="M14.716 31.1361L15.4728 31.9085C15.8105 32.2532 15.5666 32.8404 15.0975 32.8404C14.9599 32.8404 14.8223 32.7893 14.7223 32.6808L13.0525 30.9766C12.8461 30.7659 12.8461 30.4213 13.0525 30.2042L14.7223 28.5C14.9287 28.2893 15.2664 28.2893 15.479 28.5C15.6854 28.7106 15.6854 29.0553 15.479 29.2723L14.7223 30.0447C21.9394 29.9234 27.7745 23.8915 27.7745 16.5C27.7745 13.4425 26.7988 10.5574 24.9602 8.15741C24.7788 7.92124 24.8226 7.57656 25.054 7.39145C25.2854 7.20635 25.6231 7.25103 25.8044 7.4872C27.7932 10.0787 28.8439 13.2 28.8439 16.5C28.8439 24.517 22.5461 31.0149 14.716 31.1361ZM24.0596 6.87443C24.5349 6.87443 24.7788 6.27443 24.4286 5.93613C24.1847 5.69996 23.8532 5.73826 23.6656 5.94252C23.3216 6.29358 23.5968 6.87443 24.0596 6.87443ZM11.564 19.6978H9.96296C9.66902 19.6978 9.43136 19.9404 9.43136 20.2404C9.43136 20.5404 9.66902 20.7829 9.96296 20.7829H11.564C11.8579 20.7829 12.0956 20.5404 12.0956 20.2404C12.0956 19.9404 11.8579 19.6978 11.564 19.6978ZM20.4385 23.6489C20.4385 23.3489 20.2008 23.1064 19.9069 23.1064H9.09364C8.50576 23.1064 8.0242 22.6149 8.0242 22.0149V10.9851C8.0242 10.3851 8.50576 9.89358 9.09364 9.89358H11.8267V13.7042C11.8267 14.1127 12.2582 14.3808 12.6084 14.1829L14.4909 13.1617L16.3734 14.1829C16.7298 14.3744 17.1551 14.1127 17.1551 13.7042V11.7957C17.1551 11.4957 16.9175 11.2532 16.6235 11.2532C16.3296 11.2532 16.0919 11.4957 16.0919 11.7957V12.7978L14.741 12.0638C14.5847 11.9808 14.3971 11.9808 14.2407 12.0638L12.8898 12.7978V9.89358H19.8944C20.4823 9.89358 20.9638 10.3851 20.9638 10.9851V20.6553C20.9638 20.9553 21.2015 21.1978 21.4954 21.1978C21.7894 21.1978 22.027 20.9553 22.027 20.6553V10.9851C22.027 9.78507 21.0701 8.80848 19.8944 8.80848H9.09364C7.91788 8.80848 6.96102 9.78507 6.96102 10.9851V22.0149C6.96102 23.2149 7.91788 24.1915 9.09364 24.1915H19.9006C20.1946 24.1915 20.4385 23.9489 20.4385 23.6489ZM1.22606 16.5C1.22606 9.10848 7.06108 3.07656 14.2782 2.95528L13.5215 3.72762C13.1838 4.0723 13.4277 4.65954 13.8967 4.65954C14.0343 4.65954 14.1719 4.60847 14.272 4.49996L15.9418 2.79571C16.1482 2.58507 16.1482 2.24039 15.9418 2.02337L14.2782 0.319112C14.0719 0.108473 13.7341 0.108473 13.5215 0.319112C13.3151 0.52975 13.3151 0.874431 13.5215 1.09145L14.2782 1.86379C6.46069 1.98507 0.156616 8.47656 0.156616 16.5C0.156616 19.8 1.2073 22.9149 3.19608 25.5127C3.37745 25.7489 3.71517 25.7936 3.94657 25.6085C4.17797 25.4234 4.22174 25.0787 4.04038 24.8425C2.19543 22.4425 1.22606 19.5574 1.22606 16.5ZM4.55321 26.2978C4.35933 26.5021 4.34057 26.8404 4.58448 27.0766C4.79712 27.2872 5.13483 27.2808 5.34122 27.0638C5.5476 26.8468 5.54135 26.5021 5.32871 26.2915C5.07855 26.0553 4.74708 26.0936 4.55321 26.2978Z" fill="white"/>
<path d="M15.0973 33.0004C14.9159 33.0004 14.7408 32.9302 14.6094 32.7962L12.9459 31.0919C12.8145 30.9579 12.7457 30.7792 12.7457 30.5941C12.7457 30.409 12.8145 30.2302 12.9459 30.0962L14.6157 28.3919C14.747 28.2579 14.9221 28.1877 15.1035 28.1877C15.2849 28.1877 15.46 28.2579 15.5913 28.3919C15.7227 28.526 15.7915 28.7047 15.7915 28.8898C15.7915 29.0749 15.7227 29.2536 15.5913 29.3877L15.116 29.8728C22.0455 29.5409 27.6241 23.6238 27.6241 16.5004C27.6241 13.4813 26.661 10.6281 24.8473 8.26002C24.7347 8.11322 24.6847 7.92811 24.7035 7.743C24.7285 7.5579 24.816 7.39194 24.9661 7.27066C25.2663 7.03449 25.6979 7.08556 25.9355 7.39194C27.9431 10.0153 29.0062 13.1622 29.0062 16.5004C29.0062 20.4196 27.524 24.109 24.8348 26.8919C22.2331 29.5855 18.7871 31.1366 15.091 31.2834L15.5913 31.7941C15.7915 31.9983 15.8477 32.2919 15.7414 32.56C15.6288 32.8345 15.3849 33.0004 15.0973 33.0004ZM15.0973 28.5068C14.9972 28.5068 14.9034 28.5451 14.8283 28.6217L13.1648 30.3196C13.096 30.3898 13.0522 30.4919 13.0522 30.5941C13.0522 30.6962 13.0897 30.7919 13.1648 30.8685L14.8346 32.5728C14.9034 32.643 15.0034 32.6877 15.1035 32.6877C15.2911 32.6877 15.4037 32.5664 15.4537 32.4515C15.5163 32.3047 15.485 32.1451 15.3724 32.0302L14.353 30.9898L14.722 30.9834C22.427 30.8685 28.6935 24.3707 28.6935 16.5068C28.6935 13.2387 27.6554 10.1622 25.6853 7.5962C25.554 7.43024 25.3226 7.39832 25.1538 7.53237C25.0725 7.5962 25.0224 7.68556 25.0099 7.78768C24.9974 7.88981 25.0224 7.99194 25.085 8.06854C26.9487 10.5004 27.9305 13.4175 27.9305 16.5068C27.9305 20.1196 26.5609 23.5345 24.0655 26.1196C21.5764 28.6983 18.2618 30.1536 14.722 30.2111L14.3343 30.2175L15.3599 29.1707C15.4287 29.1004 15.4725 28.9983 15.4725 28.8962C15.4725 28.7941 15.435 28.6983 15.3599 28.6217C15.2974 28.5451 15.1973 28.5068 15.0973 28.5068ZM4.9532 27.3898C4.77809 27.3898 4.60923 27.326 4.47789 27.1919C4.19021 26.9111 4.1777 26.4707 4.44662 26.1834C4.5717 26.0494 4.74682 25.9728 4.92818 25.9664C5.11581 25.96 5.29717 26.0366 5.43476 26.177C5.70994 26.4451 5.71619 26.8919 5.45352 27.1728C5.31593 27.3196 5.13457 27.3898 4.9532 27.3898ZM4.94069 26.2855H4.93444C4.83437 26.2855 4.74056 26.3302 4.67177 26.4068C4.54669 26.5409 4.50916 26.7834 4.69678 26.9621C4.84688 27.109 5.08454 27.1026 5.22838 26.9494C5.37222 26.7962 5.36597 26.5536 5.21587 26.4068C5.13457 26.3302 5.04076 26.2855 4.94069 26.2855ZM3.61484 25.8834C3.58357 25.8834 3.55855 25.8834 3.52728 25.877C3.34591 25.8515 3.18331 25.7621 3.06448 25.609C1.06319 22.9856 0 19.8387 0 16.5004C0 12.5813 1.48221 8.89194 4.17145 6.10896C6.77313 3.41535 10.2191 1.86428 13.909 1.71747L13.4087 1.20684C13.2773 1.07279 13.2085 0.89407 13.2085 0.708963C13.2085 0.523857 13.2773 0.345134 13.4087 0.211091C13.54 0.0770487 13.7151 0.00683594 13.8965 0.00683594C14.0778 0.00683594 14.253 0.0770487 14.3843 0.211091L16.0541 1.91535C16.1855 2.04939 16.2543 2.22811 16.2543 2.41322C16.2543 2.59832 16.1855 2.77705 16.0541 2.91109L14.3843 4.60896C14.253 4.743 14.0778 4.81322 13.8965 4.81322C13.615 4.81322 13.3711 4.64726 13.2586 4.37917C13.1522 4.11109 13.2085 3.81747 13.4087 3.61322L13.884 3.12811C6.95449 3.46003 1.37589 9.37704 1.37589 16.5004C1.37589 19.5196 2.33901 22.3728 4.15268 24.7409C4.26526 24.8877 4.31529 25.0728 4.29653 25.2579C4.27151 25.443 4.18395 25.609 4.03386 25.7302C3.92128 25.826 3.77119 25.8834 3.61484 25.8834ZM13.8965 0.319602C13.7964 0.319602 13.7026 0.3579 13.6276 0.434495C13.5588 0.504708 13.515 0.606836 13.515 0.708963C13.515 0.811091 13.5525 0.906836 13.6276 0.983431L14.647 2.02386L14.278 2.03024C6.57925 2.13875 0.312702 8.63662 0.312702 16.5004C0.312702 19.7685 1.35087 22.8451 3.3209 25.4111C3.38344 25.4941 3.47099 25.5451 3.57106 25.5579C3.67112 25.5707 3.77119 25.5451 3.84624 25.4813C3.92754 25.4175 3.97757 25.3281 3.99008 25.226C4.00259 25.1238 3.97757 25.0217 3.91503 24.9451C2.05133 22.5132 1.06944 19.5962 1.06944 16.5068C1.06944 12.8941 2.43908 9.47917 4.93444 6.89407C7.42355 4.31535 10.7382 2.86003 14.278 2.80258L14.6657 2.7962L13.6338 3.83662C13.5212 3.95152 13.49 4.10471 13.5525 4.2579C13.6025 4.37279 13.7151 4.49407 13.9027 4.49407C14.0028 4.49407 14.0966 4.45577 14.1717 4.37917L15.8352 2.6813C15.904 2.61109 15.9478 2.50896 15.9478 2.40684C15.9478 2.30471 15.9103 2.20896 15.8352 2.13237L14.1654 0.434495C14.0966 0.3579 13.9965 0.319602 13.8965 0.319602ZM19.9004 24.3515H9.09338C7.83006 24.3515 6.8044 23.3047 6.8044 22.0153V10.9856C6.8044 9.69619 7.83006 8.64939 9.09338 8.64939H19.9004C21.1637 8.64939 22.1893 9.69619 22.1893 10.9856V20.6558C22.1893 21.0451 21.8829 21.3579 21.5014 21.3579C21.1199 21.3579 20.8134 21.0451 20.8134 20.6558V10.9856C20.8134 10.4749 20.4069 10.0536 19.9004 10.0536H13.0522V12.5366L14.1717 11.9302C14.3718 11.8217 14.6157 11.8217 14.8221 11.9302L15.9416 12.5366V11.8026C15.9416 11.4132 16.2543 11.1004 16.6295 11.1004C17.0047 11.1004 17.3174 11.4132 17.3174 11.8026V13.7111C17.3174 13.96 17.1924 14.1834 16.9797 14.3175C16.7733 14.4451 16.5169 14.4515 16.298 14.3366L14.4844 13.3536L12.6707 14.3366C12.4581 14.4515 12.2016 14.4451 11.989 14.3175C11.7764 14.1898 11.6513 13.9664 11.6513 13.7111V10.06H9.07461C8.57429 10.06 8.16152 10.4749 8.16152 10.9919V22.0217C8.16152 22.5324 8.56804 22.9536 9.07461 22.9536H19.8816C20.2631 22.9536 20.5695 23.2664 20.5695 23.6558C20.5695 24.0451 20.2819 24.3515 19.9004 24.3515ZM9.09338 8.96853C8.00517 8.96853 7.1171 9.87492 7.1171 10.9856V22.0153C7.1171 23.126 8.00517 24.0324 9.09338 24.0324H19.9004C20.1067 24.0324 20.2756 23.86 20.2756 23.6494C20.2756 23.4387 20.1067 23.2664 19.9004 23.2664H9.09338C8.41794 23.2664 7.86758 22.7047 7.86758 22.0153V10.9856C7.86758 10.2962 8.41794 9.73449 9.09338 9.73449H11.9827V13.7047C11.9827 13.8387 12.0515 13.9664 12.1641 14.0366C12.2767 14.1068 12.4205 14.1132 12.5331 14.0494L14.4906 12.9898L16.4481 14.0494C16.567 14.1132 16.7045 14.1068 16.8171 14.0366C16.9297 13.9664 16.9985 13.8451 16.9985 13.7047V11.7962C16.9985 11.5856 16.8296 11.4132 16.6232 11.4132C16.4169 11.4132 16.248 11.5856 16.248 11.7962V13.06L14.6657 12.2047C14.5532 12.1473 14.4218 12.1473 14.3092 12.2047L12.727 13.06V9.72811H19.8879C20.5633 9.72811 21.1136 10.2898 21.1136 10.9792V20.6494C21.1136 20.86 21.2825 21.0324 21.4889 21.0324C21.6953 21.0324 21.8641 20.86 21.8641 20.6494V10.9856C21.8641 9.87492 20.9761 8.96853 19.8879 8.96853H9.09338ZM11.5637 20.9494H9.96269C9.58119 20.9494 9.27474 20.6366 9.27474 20.2473C9.27474 19.8579 9.58119 19.5451 9.96269 19.5451H11.5637C11.9452 19.5451 12.2517 19.8579 12.2517 20.2473C12.2517 20.6366 11.9452 20.9494 11.5637 20.9494ZM9.96269 19.8579C9.7563 19.8579 9.58745 20.0302 9.58745 20.2409C9.58745 20.4515 9.7563 20.6238 9.96269 20.6238H11.5637C11.7701 20.6238 11.939 20.4515 11.939 20.2409C11.939 20.0302 11.7701 19.8579 11.5637 19.8579H9.96269ZM24.0593 7.03449C23.7779 7.03449 23.5277 6.86215 23.4151 6.59407C23.3026 6.33237 23.3588 6.03875 23.5527 5.83449C23.7904 5.58556 24.2219 5.51535 24.5409 5.82811C24.7472 6.03237 24.8098 6.32598 24.7035 6.60045C24.5909 6.86215 24.347 7.03449 24.0593 7.03449ZM24.0405 5.93024C23.9342 5.93024 23.8342 5.97492 23.7716 6.05152C23.6653 6.16641 23.634 6.3196 23.6966 6.46641C23.7591 6.6196 23.9029 6.71534 24.053 6.71534C24.2407 6.71534 24.3595 6.58769 24.4033 6.47279C24.447 6.3579 24.447 6.18556 24.3157 6.05152C24.2344 5.96854 24.1343 5.93024 24.0405 5.93024Z" fill="white"/>
</svg>
