<svg width="30" height="32" viewBox="0 0 30 32" fill="none" xmlns="http://www.w3.org/2000/svg">
<path d="M3.20056 24.4741C3.20056 28.8754 4.66766 30.3425 9.06897 30.3425H20.8058C25.2071 30.3425 26.6742 28.8754 26.6742 24.4741V12.7373H3.20056V18.3122" stroke="white" stroke-width="1.5" stroke-miterlimit="10" stroke-linecap="round" stroke-linejoin="round"/>
<path d="M28.8749 8.33557V9.80267C28.8749 11.4165 28.1414 12.7369 25.9407 12.7369H3.9342C1.73355 12.7369 1 11.4165 1 9.80267V8.33557C1 6.72176 1.73355 5.40137 3.9342 5.40137H25.9407C28.1414 5.40137 28.8749 6.57505 28.8749 8.33557Z" stroke="white" stroke-width="1.5" stroke-miterlimit="10" stroke-linecap="round" stroke-linejoin="round"/>
<path d="M14.4975 5.40141H6.42846C5.98833 4.81457 5.98833 4.08095 6.42846 3.49411L8.48243 1.44013C9.06927 0.85329 9.94952 0.85329 10.3896 1.44013L14.4975 5.40141Z" stroke="white" stroke-width="1.5" stroke-miterlimit="10" stroke-linecap="round" stroke-linejoin="round"/>
<path d="M23.5937 5.40141H15.5247L19.4859 1.44013C20.0727 0.85329 20.953 0.85329 21.3931 1.44013L23.447 3.49411C24.0338 3.93424 24.0339 4.81457 23.5937 5.40141Z" stroke="white" stroke-width="1.5" stroke-miterlimit="10" stroke-linecap="round" stroke-linejoin="round"/>
<path d="M10.5363 12.7373V20.2195C10.5363 21.3932 11.8567 22.1266 12.737 21.3931L14.0574 20.5128C14.4976 20.2194 15.2311 20.2194 15.6712 20.5128L16.9916 21.3931C18.0186 21.9799 19.339 21.3932 19.339 20.2195V12.7373H10.5363Z" stroke="white" stroke-width="1.5" stroke-miterlimit="10" stroke-linecap="round" stroke-linejoin="round"/>
</svg>
